<svg viewBox="0 0 512 512" xmlns="http://www.w3.org/2000/svg" xmlns:xlink="http://www.w3.org/1999/xlink" aria-hidden="true" role="img" preserveAspectRatio="xMidYMid meet" fill="#000000"><g stroke-width="0"></g><g stroke-linecap="round" stroke-linejoin="round"></g><g><path fill="#3BCCFF" d="M121.452 60.385c3.081 3.596 5.731 7.625 8.123 11.727c2.161 3.706-2.151 11.006 4.675 11.684c5.773.573 13.342 3.14 17.664-2.028c14.204-16.986 32.433-16.783 52.133-15.374c11.357.813 22.66-14.498 21.027-25.803c-.716-4.953-5.256-4.527-7.766-2.317c-4.568 4.022-8.302 9.003-12.3 13.656c-9.666 11.25-40.127 12.281-50.274 1.632c-2.031-2.131-3.058-4.591-.955-7.246c1.687-2.129 3.211-4.774 5.456-6.016c12.229-6.766 24.565-13.368 37.416-18.017c-28.511 7.187-55.012 19.428-78.489 35.722c1.23.486 2.384 1.323 3.29 2.38zM281.03 28.077c15.627 9.599 29.499 8.202 44.428.839c1.55-.764 3.071-1.588 4.584-2.427c-23.337-7.49-48.216-11.538-74.042-11.538c-7.154 0-14.234.313-21.231.921c3.194.146 6.432.467 9.723 1.004c12.536 2.048 26.002 4.729 36.538 11.201zM498.049 257c0 133.68-108.369 242.049-242.049 242.049S13.951 390.68 13.951 257c0-69.894 29.625-132.868 77.003-177.052c.114.555.314 1.092.63 1.591c3.826 6.044 9.585 10.424 11.898 18.043c1.345 4.432 8.437 3.461 13.109 2.553c4.649-.904 6.175 1.035 6.264 5.122c.079 3.638-.762 7.153-4.936 7.635c-4.031.465-8.21-.423-12.261-.047c-7.946.737-14.798 9.6-15.157 19.038c-.299 7.883 4.583 12.686 14.523 13.556c5.443.476 10.956.142 16.438.174c6.906-.312 13.074-2.767 19.128-5.992c11.178-5.955 22.06-11.36 31.969 3.045c3.604 5.24 12.147 7.014 16.818 2.935c12.096-10.564 24.536-3.409 36.889-2.954c9.631.355 15.48 8.881 23.223 13.315c-7.851-1.375-15.669-.467-23.711 2.223c-19.058 6.373-36.578 1.395-52.531-9.508c-21.985-15.026-25.776-15.192-46.69.669c-41.789 12.724-64.358 40.642-70.765 84.1c-5.187 35.182 15.647 61.353 51.121 59.663c6.148-.293 12.255-1.758 18.393-1.853c20.73-.319 31.879 7.427 38.91 26.782c3.275 9.016 5.416 18.52 9.429 27.174c5.371 11.582 8.151 23.372 6.27 35.93c-3.167 21.142 4.52 38.945 15.887 55.923c20.259 30.258 60.174 31.011 80.557 1.116c4.203-6.165 7.884-13.012 10.174-20.074c3.053-9.414 7.64-17.307 14.624-24.339c9.977-10.045 13.28-22.952 9.265-36.161c-5.87-19.311-.154-33.218 15.685-44.59c9.48-6.807 18.223-14.746 24.705-24.605c8.245-12.54 6.279-20.052-7.209-25.96c-6.323-2.77-13.013-4.907-17.818-9.874c-14.845-15.345-28.207-31.897-38.04-50.987c-1.853-3.597-3.015-7.687-3.69-11.686c-.255-1.513 1.443-3.764 2.834-5.044c1.758-1.618 4.183-.69 5.436.822c2.608 3.15 4.736 6.697 7.071 10.074c9.755 14.109 19.27 28.393 29.368 42.252c5.443 7.471 12.715 13.486 22.749 10.823c15.115-4.01 27.653-12.251 34.806-26.704c4.328-8.746 1.956-13.95-7.234-17.793c-5.033-2.105-10.525-3.21-15.366-5.647c-5.183-2.609-10.074-8.927-7.685-13.05c3.475-5.995 9.578-1.284 14.182 1.728c10.852 7.101 20.979 15.995 35.218 15.092c16.687-1.058 25.332 8.786 30.049 22.895c2.81 8.407 3.849 17.391 5.99 26.039c3.671 14.833 9.895 20.961 19.849 19.009c11.868-2.328 11.989-12.043 11.313-21.007c-.868-11.524 3.487-19.881 12.524-26.481c3.354-2.449 6.433-5.276 9.585-8.002A243.778 243.778 0 0 1 498.049 257z"></path><path fill="#13A031" d="M349.439 393.742c.104 9.897-3.508 18.437-9.651 25.996c-3.771 4.64-8.686 6.44-14.413 4.504c-5.783-1.955-5.418-7.305-5.341-11.89c.191-11.503 4.067-21.096 15.104-26.605c9.826-4.904 14.138-2.551 14.301 7.995zM91.584 81.539a4.73 4.73 0 0 1-.63-1.591a243.16 243.16 0 0 1 27.207-21.941c1.231.484 2.385 1.321 3.291 2.378c3.081 3.596 5.731 7.625 8.123 11.727c2.161 3.706-2.151 11.006 4.675 11.684c5.773.573 13.342 3.14 17.664-2.028c14.204-16.986 32.433-16.783 52.133-15.374c11.357.813 22.66-14.498 21.027-25.803c-.716-4.953-5.256-4.527-7.766-2.317c-4.568 4.022-8.302 9.003-12.3 13.656c-9.666 11.25-40.127 12.281-50.274 1.632c-2.031-2.131-3.058-4.591-.955-7.246c1.687-2.129 3.211-4.774 5.456-6.016c12.229-6.766 24.565-13.368 37.416-18.017a241.297 241.297 0 0 1 38.119-6.413c3.194.146 6.432.467 9.723 1.004c12.536 2.047 26.002 4.728 36.538 11.2c15.627 9.599 29.499 8.202 44.428.839c1.55-.764 3.071-1.588 4.584-2.427c85.122 27.324 149.71 100.484 164.701 190.429c-3.152 2.726-6.231 5.553-9.585 8.002c-9.037 6.6-13.393 14.956-12.524 26.481c.675 8.963.554 18.679-11.313 21.007c-9.954 1.952-16.178-4.176-19.849-19.009c-2.141-8.649-3.179-17.633-5.99-26.039c-4.717-14.109-13.362-23.953-30.049-22.895c-14.239.902-24.367-7.991-35.218-15.092c-4.604-3.012-10.706-7.723-14.182-1.728c-2.39 4.122 2.502 10.44 7.685 13.05c4.841 2.437 10.333 3.543 15.366 5.647c9.19 3.843 11.562 9.047 7.234 17.793c-7.153 14.454-19.691 22.694-34.806 26.704c-10.034 2.662-17.305-3.352-22.749-10.823c-10.097-13.86-19.613-28.143-29.368-42.252c-2.335-3.377-4.463-6.924-7.071-10.074c-1.252-1.513-3.678-2.44-5.436-.822c-1.391 1.28-3.089 3.531-2.834 5.044c.675 3.999 1.837 8.088 3.69 11.686c9.833 19.09 23.195 35.642 38.04 50.987c4.805 4.967 11.495 7.104 17.818 9.874c13.488 5.908 15.454 13.42 7.209 25.96c-6.482 9.858-15.225 17.797-24.705 24.605c-15.838 11.372-21.555 25.279-15.685 44.59c4.015 13.208.712 26.116-9.265 36.161c-6.984 7.032-11.571 14.926-14.624 24.339c-2.29 7.062-5.971 13.909-10.174 20.074c-20.383 29.895-60.298 29.142-80.557-1.116c-11.367-16.978-19.054-34.782-15.887-55.923c1.881-12.558-.899-24.348-6.27-35.93c-4.013-8.653-6.154-18.158-9.429-27.174c-7.031-19.355-18.18-27.101-38.91-26.782c-6.139.094-12.246 1.56-18.393 1.853c-35.474 1.69-56.307-24.481-51.121-59.663c6.407-43.458 28.976-71.376 70.765-84.1c20.914-15.861 24.705-15.695 46.69-.669c15.953 10.903 33.473 15.88 52.531 9.508c8.043-2.689 15.86-3.598 23.711-2.223c-7.743-4.434-13.592-12.96-23.223-13.315c-12.353-.456-24.792-7.61-36.889 2.954c-4.671 4.079-13.213 2.305-16.818-2.935c-9.909-14.405-20.792-9-31.969-3.045c-6.054 3.226-12.222 5.68-19.128 5.992c-5.481-.031-10.995.302-16.438-.174c-9.94-.87-14.822-5.672-14.523-13.556c.358-9.438 7.21-18.301 15.157-19.038c4.052-.376 8.23.512 12.261.047c4.174-.481 5.015-3.996 4.936-7.635c-.089-4.088-1.615-6.026-6.264-5.122c-4.672.908-11.764 1.879-13.109-2.553c-2.313-7.623-8.072-12.003-11.898-18.047z"></path></g></svg>