<svg viewBox="0 0 72 72" xmlns="http://www.w3.org/2000/svg" xmlns:xlink="http://www.w3.org/1999/xlink" aria-hidden="true" role="img" preserveAspectRatio="xMidYMid meet" fill="#000000"><g id="SVGRepo_bgCarrier" stroke-width="0"></g><g stroke-linecap="round" stroke-linejoin="round"></g><g><path fill="#FF473E" d="M67 18.7c-7.6-8.9-20.9-9.4-29-1.3c-1.1 1.1-2.9 1.1-4 0c-7.7-7.7-20.1-7.7-27.9-.1c-6.6 6.5-7.6 17-2.6 24.8c1.6 2.4 3.6 4.3 5.7 5.7l25.3 20.5c.9.7 2.2.7 3.1 0l25.2-20.5c2.1-1.4 4-3.2 5.6-5.6c4.8-7.1 4.2-16.9-1.4-23.5z"></path><path fill="#FF6E83" d="M8.3 34.1H8c-1.8-.1-3.2-1.7-3-3.6c.5-6.5 5.1-11.7 11.5-13.2c1.8-.4 3.5.7 3.9 2.5c.4 1.8-.7 3.5-2.5 3.9c-3.5.8-6 3.7-6.3 7.3c-.2 1.8-1.6 3.1-3.3 3.1z"></path><path fill="#FFC7EF" d="M8.9 53.2c2.8.7 4.9 2.9 5.6 5.6c.1.3.4.3.5 0c.7-2.8 2.9-4.9 5.6-5.6c.3-.1.3-.4 0-.5c-2.8-.7-4.9-2.9-5.6-5.6c-.1-.3-.4-.3-.5 0c-.7 2.8-2.9 4.9-5.6 5.6c-.3.1-.3.4 0 .5z"></path><path fill="#FFC7EF" d="M56.2 18c3.6.9 6.4 3.7 7.3 7.3c.1.3.5.3.6 0c.9-3.6 3.7-6.4 7.3-7.3c.3-.1.3-.5 0-.6c-3.6-.9-6.4-3.7-7.3-7.3c-.1-.3-.5-.3-.6 0c-.9 3.6-3.7 6.4-7.3 7.3c-.3 0-.3.5 0 .6z"></path></g></svg>