<svg viewBox="0 0 512 512" xmlns="http://www.w3.org/2000/svg" xmlns:xlink="http://www.w3.org/1999/xlink" aria-hidden="true" role="img" preserveAspectRatio="xMidYMid meet" fill="#000000"><g stroke-width="0"></g><g stroke-linecap="round" stroke-linejoin="round"></g><g><path fill="#B1B4B5" d="M376.749 349.097c-13.531 0-24.5-10.969-24.5-24.5V181.932c0-48.083-39.119-87.203-87.203-87.203c-48.083 0-87.203 39.119-87.203 87.203v82.977c0 13.531-10.969 24.5-24.5 24.5s-24.5-10.969-24.5-24.5v-82.977c0-75.103 61.1-136.203 136.203-136.203s136.203 61.1 136.203 136.203v142.665c0 13.531-10.969 24.5-24.5 24.5z"></path><path fill="#FFB636" d="M414.115 497.459H115.977c-27.835 0-50.4-22.565-50.4-50.4V274.691c0-27.835 22.565-50.4 50.4-50.4h298.138c27.835 0 50.4 22.565 50.4 50.4v172.367c0 27.836-22.565 50.401-50.4 50.401z"></path><path fill="#FFD469" d="M109.311 456.841h-2.525c-7.953 0-14.4-6.447-14.4-14.4V279.309c0-7.953 6.447-14.4 14.4-14.4h2.525c7.953 0 14.4 6.447 14.4 14.4v163.132c0 7.953-6.447 14.4-14.4 14.4z"></path></g></svg>