<svg viewBox="0 0 512 512" xmlns="http://www.w3.org/2000/svg" xmlns:xlink="http://www.w3.org/1999/xlink" aria-hidden="true" role="img" preserveAspectRatio="xMidYMid meet" fill="#000000"><g stroke-width="0"></g><g stroke-linecap="round" stroke-linejoin="round"></g><g><path fill="#AF773F" d="M502.218 427.96H173.435V91.976h328.783a7.2 7.2 0 0 1 7.2 7.2V420.76a7.2 7.2 0 0 1-7.2 7.2z"></path><path fill="#E5AA6E" d="M335.983 427.96H7.2a7.2 7.2 0 0 1-7.2-7.2V99.176a7.2 7.2 0 0 1 7.2-7.2h328.783V427.96z"></path><path fill="#332A23" d="M201.019 231.489h-66.055c-13.495 0-24.436-10.94-24.436-24.436c0-13.495 10.94-24.436 24.436-24.436h66.055c13.495 0 24.436 10.94 24.436 24.436s-10.94 24.436-24.436 24.436z"></path><path fill="#3F6072" d="M207.592 141.397a7.604 7.604 0 0 1-7.604 7.604h-63.993a7.604 7.604 0 0 1-7.604-7.604v-49.42h79.2v49.42zm-79.2 286.563h79.2v-49.42a7.604 7.604 0 0 0-7.604-7.604h-63.993a7.604 7.604 0 0 0-7.604 7.604v49.42z"></path></g></svg>