<svg xmlns="http://www.w3.org/2000/svg" xmlns:xlink="http://www.w3.org/1999/xlink" xml:space="preserve" id="Layer_1" x="0" y="0" version="1.1" viewBox="0 0 512 512"><style>.st0{fill:#fff}.st4{fill:#2d4f8e}.st8{fill:#65bc46}</style><path d="M497.7 254.3c0 138.2-108.7 250.2-242.7 250.2S12.3 392.5 12.3 254.3 121 4.1 255.1 4.1c134 0 242.6 112 242.6 250.2" class="st0"/><linearGradient id="SVGID_1_" x1="-899.964" x2="-899.964" y1="-1663.394" y2="-1621.436" gradientTransform="matrix(12.2027 0 0 -12.2027 11238.032 -19785.963)" gradientUnits="userSpaceOnUse"><stop offset="0" style="stop-color:#d14427"/><stop offset="1" style="stop-color:#e55225"/></linearGradient><path d="M480 256c0 123.7-100.3 224-224 224S32 379.7 32 256 132.3 32 256 32s224 100.3 224 224m32 0c0 141.4-114.6 256-256 256S0 397.4 0 256 114.6 0 256 0s256 114.6 256 256m-21.1 0c0-129.7-105.2-234.9-234.9-234.9S21.1 126.3 21.1 256 126.3 490.9 256 490.9 490.9 385.7 490.9 256" style="fill:url(#SVGID_1_)"/><defs><path id="SVGID_00000116230508440019795290000007073017068982376630_" d="M480.9 255.4c0 124-100.9 224.8-224.9 224.8S31.2 379.3 31.2 255.4C31.2 131.4 132 30.6 256 30.6s224.9 100.8 224.9 224.8"/></defs><clipPath id="SVGID_00000010284946673283237210000015792187200079878288_"><use xlink:href="#SVGID_00000116230508440019795290000007073017068982376630_" style="overflow:visible"/></clipPath><g style="clip-path:url(#SVGID_00000010284946673283237210000015792187200079878288_)"><path d="M346 582.9c-7.7-35.6-52.6-116-69.6-150.1-17-34-34.1-82-26.3-112.9 1.4-5.6-14.7-48.5-10.1-51.6 36.1-23.6 45.6 2.6 60.1-8 7.5-5.5 17.6 4.5 20.1-4.5 9.3-32.5-12.9-89.1-37.6-113.8-8.1-8.1-20.5-13.1-34.5-15.8-5.4-7.4-14.1-14.4-26.3-20.9-13.8-7.3-43.5-16.9-58.9-19.5-10.7-1.8-13.1 1.2-17.7 2 4.3.4 24.5 10.4 28.4 10.9-3.9 2.7-15.5-.1-22.8 3.2-3.7 1.7-6.5 8.1-6.5 11.1 21.1-2.1 54-.1 73.4 8.6-15.5 1.8-39 3.7-49.1 9-29.4 15.5-42.4 51.6-34.6 95 7.7 43.2 41.8 201 52.6 253.7 10.8 52.6-23.2 86.6-44.9 95.9l23.2 1.6-7.7 17c27.8 3.1 58.8-6.2 58.8-6.2-6.2 17-48 23.2-48 23.2s20.1 6.2 52.6-6.2 52.6-20.1 52.6-20.1l15.5 40.2 29.4-29.4 12.4 30.9c0 .1 23.2-7.7 15.5-43.3" style="fill:#d5d7d8"/><path d="M355.3 575.7c-7.7-35.6-52.6-116-69.6-150.1-17-34-34-82-26.3-112.9 1.4-5.6 1.5-28.6 6.1-31.7 36.1-23.6 33.5-.8 48-11.3 7.5-5.4 13.4-12 16-21.1 9.3-32.5-12.9-89.1-37.6-113.8-8.1-8.1-20.5-13.1-34.4-15.8-5.4-7.4-14-14.4-26.3-20.9-23.1-12.3-51.8-17.2-78.4-12.4 4.2.4 14 9.2 17.9 9.8-5.9 4-21.7 3.5-21.6 12.4 21.1-2.1 44.2 1.2 63.7 9.9-15.5 1.8-29.8 5.6-40 10.9-29.4 15.5-37.1 46.4-29.4 89.7 7.8 43.3 41.8 201.1 52.6 253.7s-23.2 86.6-44.8 95.9l23.2 1.5-7.7 17c27.8 3.1 58.8-6.2 58.8-6.2-6.2 17-48 23.2-48 23.2s20.1 6.2 52.6-6.2 52.6-20.1 52.6-20.1l15.5 40.2 29.4-29.4 12.4 30.9c-.1.1 23.1-7.6 15.3-43.2" class="st0"/><path d="M177.4 220.5c0-9 7.3-16.2 16.2-16.2 9 0 16.2 7.3 16.2 16.2 0 9-7.3 16.2-16.2 16.2-8.9.1-16.1-7.2-16.2-16.2" class="st4"/><path d="M196.7 215.1c0-2.3 1.9-4.2 4.2-4.2s4.2 1.9 4.2 4.2-1.9 4.2-4.2 4.2-4.2-1.9-4.2-4.2" class="st0"/><path d="M288.3 210.9c0-7.7 6.3-13.9 14-13.9s14 6.2 14 14c0 7.7-6.2 14-14 14-7.7-.2-13.9-6.4-14-14.1" class="st4"/><path d="M304.9 206.2c0-2 1.6-3.6 3.6-3.6s3.6 1.6 3.6 3.6-1.6 3.6-3.5 3.6h-.1c-2 0-3.6-1.6-3.6-3.6" class="st0"/><linearGradient id="SVGID_00000148627574217912605100000012656822746852819086_" x1="-907.704" x2="-904.691" y1="-1636.091" y2="-1636.091" gradientTransform="matrix(12.2027 0 0 -12.2027 11238.032 -19785.963)" gradientUnits="userSpaceOnUse"><stop offset=".006" style="stop-color:#6176b9"/><stop offset=".691" style="stop-color:#394a9f"/></linearGradient><path d="M198.3 173.4s-12.2-5.5-24.2 1.9c-11.9 7.5-11.4 15.1-11.4 15.1s-6.3-14.1 10.5-21c16.9-6.8 25.1 4 25.1 4" style="fill:url(#SVGID_00000148627574217912605100000012656822746852819086_)"/><linearGradient id="SVGID_00000004515011562323185290000011359407635172696710_" x1="-898.226" x2="-895.481" y1="-1635.173" y2="-1635.173" gradientTransform="matrix(12.2027 0 0 -12.2027 11238.032 -19785.963)" gradientUnits="userSpaceOnUse"><stop offset=".006" style="stop-color:#6176b9"/><stop offset=".691" style="stop-color:#394a9f"/></linearGradient><path d="M310.7 172.3s-8.8-5-15.6-4.9c-14 .2-17.9 6.4-17.9 6.4s2.4-14.8 20.3-11.8c9.8 1.5 13.2 10.3 13.2 10.3" style="fill:url(#SVGID_00000004515011562323185290000011359407635172696710_)"/></g><path d="M243.4 283.2c1.6-9.8 27-28.4 45-29.6 18-1.1 23.6-.9 38.7-4.5s53.8-13.3 64.5-18.2c10.7-5 56.2 2.5 24.2 20.3-13.9 7.8-51.3 22-78 30s-42.9-7.6-51.7 5.5c-7.1 10.4-1.4 24.7 30.5 27.7 43.1 4 84.4-19.4 88.9-7 4.6 12.4-37 27.9-62.3 28.4s-76.3-16.7-83.9-22c-7.8-5.3-18-17.7-15.9-30.6" style="fill:#fdd20a"/><path d="M262.9 417.5s-60.5-32.3-61.5-19.2 0 66.5 7.1 70.6c7.1 4 57.5-26.2 57.5-26.2zm23.2-2.1s41.3-31.3 50.4-29.2 11.1 66.6 3 69.6-55.4-16.4-55.4-16.4z" class="st8"/><path d="M248.3 420.9c0 21.2-3 30.2 6.1 32.3 9.1 2 26.2 0 32.3-4s1-31.2-1-36.3c-2.2-5.1-37.4-1.1-37.4 8" style="fill:#43a244"/><path d="M252.1 416.2c0 21.2-3 30.3 6.1 32.3 9 2 26.2 0 32.3-4s1-31.2-1-36.3c-2.1-5.1-37.4-1.1-37.4 8" class="st8"/><path d="M309.7 472.1c-18.1 4.6-36.7 6.9-55.4 6.9-20.2 0-39.8-2.7-58.5-7.8l.2 1.8c19 5.1 38.6 7.7 58.3 7.7 19.4 0 38.1-2.5 56.1-7.1z" class="st0"/></svg>