<svg xmlns:inkscape="http://www.inkscape.org/namespaces/inkscape" xmlns:sodipodi="http://sodipodi.sourceforge.net/DTD/sodipodi-0.dtd" xmlns:xlink="http://www.w3.org/1999/xlink" xmlns="http://www.w3.org/2000/svg" xmlns:svg="http://www.w3.org/2000/svg" version="1.1" id="svg1" xml:space="preserve" sodipodi:docname="Floop_logo_without_text.svg" inkscape:version="1.1.1 (3bf5ae0d25, 2021-09-20)" viewBox="0 0 119.06 107.69"><sodipodi:namedview id="namedview13" pagecolor="#ffffff" bordercolor="#666666" borderopacity="1.0" inkscape:pageshadow="2" inkscape:pageopacity="0.0" inkscape:pagecheckerboard="0" showgrid="false" inkscape:object-paths="true" inkscape:snap-intersection-paths="true" inkscape:snap-smooth-nodes="true" inkscape:object-nodes="false" inkscape:lockguides="true" inkscape:zoom="0.51101256" inkscape:cx="584.13437" inkscape:cy="453.02213" inkscape:window-width="1920" inkscape:window-height="1017" inkscape:window-x="1912" inkscape:window-y="-8" inkscape:window-maximized="1" inkscape:current-layer="svg1"/><defs id="defs1"><linearGradient inkscape:collect="always" id="linearGradient41007"><stop style="stop-color:#2d0793;stop-opacity:1" offset="0" id="stop41003"/><stop style="stop-color:#1c056c;stop-opacity:1" offset="1" id="stop41005"/></linearGradient><linearGradient inkscape:collect="always" id="linearGradient33056"><stop style="stop-color:#f8f2ff;stop-opacity:1" offset="0" id="stop33058"/><stop style="stop-color:#c1c3e5;stop-opacity:1" offset="1" id="stop35124"/></linearGradient><linearGradient id="linearGradient31352" inkscape:swatch="solid"><stop style="stop-color:#ffffff;stop-opacity:1;" offset="0" id="stop31350"/></linearGradient><linearGradient id="linearGradient15"><stop style="stop-color:#7204e8;stop-opacity:1;" offset="0.09843081" id="stop31195"/><stop style="stop-color:#0710e8;stop-opacity:1;" offset="0.90442228" id="stop31197"/></linearGradient><linearGradient id="linearGradient15-5"><stop style="stop-color:#7204e8;stop-opacity:1;" offset="0.09843081" id="stop15"/><stop style="stop-color:#0710e8;stop-opacity:1;" offset="0.90442228" id="stop16"/></linearGradient><linearGradient xlink:href="#linearGradient15-5" id="linearGradient16" x1="89.236084" y1="164.32671" x2="89.236343" y2="310.96014" gradientUnits="userSpaceOnUse" gradientTransform="matrix(0.73444795,0,0,0.73444795,-6.0081998,-120.68941)"/><filter inkscape:collect="always" style="color-interpolation-filters:sRGB" id="filter16363" x="-0.026366904" y="-0.060160967" width="1.0527338" height="1.1203219"><feGaussianBlur inkscape:collect="always" stdDeviation="3.5408214" id="feGaussianBlur16365"/></filter><filter inkscape:collect="always" style="color-interpolation-filters:sRGB" id="filter17243" x="-0.12431146" y="-0.087629295" width="1.2486229" height="1.1752586"><feGaussianBlur inkscape:collect="always" stdDeviation="5.5255376" id="feGaussianBlur17245"/></filter><linearGradient inkscape:collect="always" xlink:href="#linearGradient33056" id="linearGradient34608" gradientUnits="userSpaceOnUse" x1="91.133186" y1="33.858837" x2="12.926805" y2="151.69347"/><linearGradient inkscape:collect="always" xlink:href="#linearGradient41007" id="linearGradient41009" x1="44.491547" y1="29.87673" x2="90.553719" y2="104.66171" gradientUnits="userSpaceOnUse"/><filter inkscape:collect="always" style="color-interpolation-filters:sRGB" id="filter56934" x="-0.072575207" y="-0.05439755" width="1.1451504" height="1.1087951"><feGaussianBlur inkscape:collect="always" stdDeviation="0.94930096" id="feGaussianBlur56936"/></filter><filter inkscape:collect="always" style="color-interpolation-filters:sRGB" id="filter59166" x="-0.22283328" y="-0.088717638" width="1.4456666" height="1.1774353"><feGaussianBlur inkscape:collect="always" stdDeviation="0.72999998" id="feGaussianBlur59168"/></filter><filter inkscape:collect="always" style="color-interpolation-filters:sRGB" id="filter84277" x="-0.078194731" y="-0.13190342" width="1.1563895" height="1.2638068"><feGaussianBlur inkscape:collect="always" stdDeviation="7.9744242" id="feGaussianBlur84279"/></filter><linearGradient inkscape:collect="always" xlink:href="#linearGradient33056" id="linearGradient86330" gradientUnits="userSpaceOnUse" x1="91.133186" y1="33.858837" x2="44.77869" y2="163.04298"/></defs><g id="layer1"><g id="g86421"><path id="path1" style="fill:url(#linearGradient16);stroke:none;stroke-width:0.183612" d="M 41.409707,0 C 31.899786,0 27.488584,1.6208775 22.362291,10.499872 L 3.5596734,43.191255 C 3.5596734,43.191255 0,47.78478 0,53.833837 0,59.882895 3.5596734,64.53297 3.5596734,64.53297 L 22.416564,97.194742 c 5.126297,8.879008 9.537868,10.499878 19.047801,10.499878 h 36.133762 c 9.509933,0 13.921133,-1.62087 19.047428,-10.499878 L 115.50282,64.53297 c 0,0 3.55968,-4.650075 3.55968,-10.699133 0,-6.049057 -3.55968,-10.642582 -3.55968,-10.642582 L 96.7002,10.499872 C 91.573912,1.6208775 87.16233,0 77.652405,0 Z"/><path id="path16163" style="mix-blend-mode:normal;fill:#1f0774;fill-opacity:1;stroke:none;stroke-width:0.693967;filter:url(#filter16363)" d="M 63.853516 203.4668 C 63.853367 203.48633 63.851562 203.5059 63.851562 203.52539 C 63.851562 203.58552 63.8531 203.64502 63.853516 203.70508 C 63.853969 203.77039 63.853541 203.83523 63.855469 203.90039 C 63.863028 204.05614 63.871474 204.21266 63.882812 204.36914 C 63.886063 204.41831 63.892705 204.46668 63.896484 204.51562 C 63.896598 204.51691 63.896371 204.51836 63.896484 204.51953 C 63.904043 204.58216 63.908457 204.64452 63.916016 204.70703 C 63.931134 204.86502 63.953822 205.02484 63.974609 205.18359 C 63.982168 205.23008 63.990488 205.27593 63.998047 205.32227 C 64.005606 205.38293 64.012099 205.44347 64.023438 205.50391 C 64.053674 205.67315 64.083298 205.8424 64.121094 206.01172 C 64.139991 206.10734 64.164823 206.20472 64.1875 206.29883 C 64.229075 206.47155 64.272754 206.64488 64.322266 206.81836 C 64.352502 206.91776 64.383826 207.01659 64.414062 207.11523 C 64.464708 207.27707 64.515636 207.43786 64.574219 207.59961 C 64.621085 207.73083 64.673144 207.86104 64.722656 207.99219 C 64.772924 208.12035 64.820638 208.2492 64.876953 208.37695 C 64.94952 208.55138 65.031643 208.72293 65.113281 208.89453 C 65.15788 208.98675 65.199164 209.08047 65.244141 209.17383 C 65.37718 209.44149 65.518174 209.70449 65.669922 209.9668 L 119.71289 303.57031 L 134.87891 329.83984 L 134.88672 329.83594 L 139.75586 338.26953 L 139.75586 338.27148 C 139.81784 338.37863 139.88654 338.4791 139.95117 338.58398 C 140.0861 338.80501 140.22331 339.02213 140.36523 339.23047 C 140.37657 339.24445 140.38515 339.25919 140.39648 339.27344 C 140.50609 339.43274 140.61752 339.5919 140.73242 339.74609 C 140.8031 339.84032 140.8735 339.9301 140.94531 340.02148 C 140.96799 340.04945 140.99137 340.07761 141.01367 340.10547 C 141.0938 340.20563 141.17542 340.30483 141.25781 340.40234 C 141.35495 340.51641 141.45491 340.62507 141.55469 340.73438 C 141.56603 340.74685 141.57655 340.76123 141.58789 340.77344 C 141.66575 340.85848 141.74636 340.94111 141.82422 341.02539 C 141.9308 341.13519 142.03921 341.24105 142.14844 341.3457 C 142.156 341.3544 142.16822 341.36435 142.17578 341.37305 C 142.25364 341.44713 142.33041 341.52156 142.41016 341.59375 C 142.42527 341.6066 142.44027 341.61839 142.45312 341.63086 C 142.55328 341.72059 142.65577 341.80693 142.75781 341.89258 C 142.77293 341.90429 142.78409 341.91602 142.79883 341.92773 C 142.88462 341.99917 142.97053 342.07026 143.05859 342.13867 C 143.06615 342.14472 143.07252 342.1502 143.08008 342.15625 C 143.17759 342.23222 143.27598 342.30645 143.375 342.37891 C 143.39012 342.39024 143.40525 342.40272 143.42188 342.41406 C 143.52014 342.48814 143.62181 342.55892 143.72461 342.62695 C 143.74351 342.63943 143.76229 342.65001 143.7793 342.66211 C 143.85527 342.71291 143.93071 342.76367 144.00781 342.8125 C 144.03427 342.82989 144.06225 342.84842 144.08984 342.86523 C 144.20285 342.93629 144.31794 343.00537 144.43359 343.07227 C 144.46383 343.09079 144.49755 343.10855 144.5293 343.12695 C 144.56331 343.14661 144.59804 343.16646 144.63281 343.18555 C 144.67552 343.20974 144.71863 343.23457 144.76172 343.25781 C 144.90043 343.32925 145.03837 343.40034 145.17969 343.46875 C 145.21748 343.48651 145.25278 343.50237 145.28906 343.51953 C 145.31174 343.52974 145.33235 343.53862 145.35352 343.54883 C 145.39849 343.56962 145.44293 343.59099 145.48828 343.61133 C 145.63304 343.67671 145.78081 343.73911 145.92969 343.79883 C 145.95614 343.80941 145.98293 343.8195 146.00977 343.83008 C 146.04378 343.84368 146.08008 343.85768 146.11523 343.87109 C 146.15416 343.88621 146.19349 343.90131 146.23242 343.91602 C 146.39343 343.97573 146.5552 344.03416 146.7207 344.08594 C 146.75094 344.09614 146.78586 344.10503 146.81836 344.11523 C 146.82592 344.11769 146.83424 344.1204 146.8418 344.12305 C 146.89547 344.13968 146.94866 344.15668 147.00195 344.17188 C 147.17241 344.22214 147.34435 344.27061 147.51953 344.31445 C 147.54977 344.32163 147.57794 344.32718 147.60742 344.33398 C 147.6112 344.33494 147.61536 344.33705 147.61914 344.33789 C 147.68679 344.35339 147.75304 344.36773 147.82031 344.38281 C 147.98586 344.41985 148.15103 344.45805 148.32031 344.48828 C 148.45751 344.51323 148.59623 344.53201 148.73438 344.55469 C 148.87044 344.5751 149.00575 344.59816 149.14453 344.61328 C 149.17099 344.61659 149.19576 344.61807 149.2207 344.62109 C 149.23582 344.62266 149.24698 344.62359 149.26172 344.625 C 149.41101 344.64163 149.56066 344.65599 149.71094 344.66797 C 149.81336 344.67553 149.91402 344.68775 150.01758 344.69531 C 150.31578 344.71421 150.61485 344.7207 150.91797 344.7207 L 259.00391 344.7207 L 289.33594 344.7207 L 289.33594 344.71875 L 299.07617 344.71875 C 299.23416 344.71875 299.38987 344.70842 299.54688 344.70312 C 299.69125 344.69859 299.83677 344.69777 299.98047 344.68945 C 300.07533 344.68378 300.17032 344.67395 300.26367 344.66602 L 300.26562 344.66602 C 300.27318 344.66544 300.2815 344.66463 300.28906 344.66406 C 300.47388 344.64932 300.65909 344.63306 300.8418 344.61133 C 300.84558 344.61078 300.84986 344.60993 300.85742 344.60938 C 300.99613 344.59275 301.13106 344.57138 301.26758 344.55078 C 301.27892 344.5493 301.28554 344.54822 301.29688 344.54688 C 301.42349 344.5276 301.55011 344.50705 301.67578 344.48438 C 301.67771 344.48403 301.67981 344.48472 301.68359 344.48438 C 301.74974 344.47228 301.81352 344.45715 301.87891 344.44336 C 301.97415 344.42446 302.06957 344.40706 302.16406 344.38477 C 302.17162 344.3833 302.17603 344.38004 302.18359 344.37891 C 302.28451 344.35623 302.38617 344.33561 302.48633 344.31055 C 302.65187 344.26916 302.81476 344.2234 302.97656 344.17578 C 302.98412 344.17312 302.99439 344.17061 303.00195 344.16797 C 303.09606 344.14 303.18985 344.11204 303.2832 344.08203 C 303.44837 344.02885 303.61051 343.97167 303.77148 343.91211 C 303.87278 343.87469 303.97406 343.83514 304.07422 343.79492 C 304.07615 343.79416 304.07812 343.79374 304.07812 343.79297 C 304.22024 343.7359 304.36118 343.67718 304.5 343.61523 C 304.50378 343.6131 304.50807 343.60969 304.51562 343.60742 C 304.59764 343.57076 304.67851 343.53247 304.75977 343.49414 C 304.78244 343.48394 304.80305 343.47505 304.82422 343.46484 C 304.82736 343.46331 304.83216 343.46087 304.83594 343.45898 C 304.96709 343.39511 305.09675 343.32818 305.22461 343.25977 C 305.23217 343.25675 305.23463 343.25498 305.24219 343.25195 C 305.35255 343.19295 305.46146 343.13102 305.57031 343.06836 C 305.57235 343.06719 305.57435 343.0655 305.57812 343.06445 C 305.68698 343.00171 305.79419 342.93919 305.90039 342.87305 C 305.90417 342.86963 305.91224 342.86473 305.91602 342.86133 C 306.02487 342.79352 306.1329 342.72378 306.24023 342.65234 C 306.25535 342.64289 306.27035 342.63445 306.2832 342.625 C 306.28698 342.62237 306.29114 342.61983 306.29492 342.61719 C 306.31382 342.60509 306.32914 342.59217 306.34766 342.58008 C 306.42778 342.5249 306.50695 342.46914 306.58594 342.41211 C 306.70915 342.32303 306.8306 342.23121 306.95117 342.13672 C 306.95261 342.13559 306.95376 342.13383 306.95508 342.13281 C 307.01177 342.0881 307.06869 342.04167 307.125 341.99609 C 307.15146 341.97304 307.18139 341.95079 307.20898 341.92773 L 307.21094 341.92578 C 307.34171 341.81716 307.47213 341.70707 307.59961 341.5918 C 307.67218 341.52607 307.74378 341.45843 307.81445 341.39062 C 307.82201 341.3842 307.82447 341.37752 307.83203 341.37109 C 307.95071 341.2579 308.06794 341.14272 308.18359 341.02344 C 308.18715 341.01978 308.19153 341.01745 308.19531 341.01367 C 308.26712 340.93922 308.33595 340.8615 308.40625 340.78516 C 308.41003 340.78062 308.41432 340.77602 308.42188 340.77148 C 308.53224 340.65141 308.64109 340.53012 308.74805 340.4043 C 308.74926 340.40291 308.75093 340.40166 308.75195 340.40039 C 308.83472 340.30314 308.91597 340.20356 308.99609 340.10352 C 309.09096 339.98499 309.18708 339.86754 309.2793 339.74414 C 309.38966 339.59685 309.49454 339.44393 309.59961 339.29102 C 309.60339 339.28459 309.60768 339.27829 309.61523 339.27148 C 309.66739 339.19533 309.72204 339.12282 309.77344 339.04492 L 309.77539 339.04297 C 309.77618 339.04177 309.77655 339.04013 309.77734 339.03906 C 309.94289 338.79033 310.10051 338.53378 310.25195 338.27148 L 310.25391 338.26953 L 335.70898 294.18164 L 376.61133 223.33984 L 376.60742 223.33984 L 379.46094 218.39844 L 379.46289 218.39648 L 384.33008 209.96289 L 384.33203 209.96094 C 384.33581 209.95187 384.33814 209.94229 384.3457 209.93359 C 384.61178 209.47053 384.84165 209.00802 385.04688 208.54492 C 385.06577 208.50055 385.08852 208.45663 385.10742 208.41211 C 385.30774 207.9475 385.47403 207.48277 385.61523 207.01953 C 385.63413 206.9563 385.65569 206.8935 385.67383 206.83008 C 385.81065 206.3551 385.91546 205.88211 385.99219 205.41016 C 385.99975 205.35486 386.01197 205.29955 386.01953 205.24414 C 386.09172 204.75794 386.13319 204.27429 386.14453 203.79297 C 386.14597 203.73306 386.14802 203.67326 386.14844 203.61328 C 386.14882 203.56416 386.14087 203.51587 386.14062 203.4668 L 63.853516 203.4668 z " transform="scale(0.26458334)"/><path id="path16367" style="fill:url(#linearGradient41009);fill-opacity:1;stroke:none;stroke-width:0.183612" d="m 42.508908,16.487618 v 0.0016 h -2.57762 c -1.36099,0 -2.35088,0.660103 -2.95434,1.705324 l -1.28881,2.231388 -5.44618,9.433015 -10.82207,18.74356 h 0.001 l -2.04329,3.539318 -5.2e-4,5.19e-4 c -0.01,0.01687 -0.018,0.03418 -0.0274,0.05116 -0.0425,0.07603 -0.0816,0.151852 -0.11782,0.227891 -0.006,0.0117 -0.0106,0.02344 -0.016,0.03514 -0.0164,0.03453 -0.033,0.06888 -0.0481,0.103871 -7.4e-4,0.0017 -10e-4,0.0034 -0.002,0.0052 -0.0108,0.02531 -0.0204,0.05066 -0.0305,0.07596 -0.004,0.01046 -0.008,0.02108 -0.0124,0.03152 -0.0124,0.0316 -0.0243,0.06328 -0.0357,0.09508 -6e-5,1.56e-4 5e-5,3.63e-4 0,5.16e-4 -0.0129,0.03622 -0.0246,0.07234 -0.0362,0.108522 -0.002,0.0052 -0.004,0.0103 -0.005,0.0155 -0.009,0.0291 -0.0179,0.05865 -0.0269,0.08785 -5e-4,0.0017 -0.001,0.0034 -0.002,0.0052 -0.01,0.03465 -0.0183,0.06927 -0.0269,0.10387 -0.001,0.0058 -0.003,0.01172 -0.005,0.01757 -0.007,0.0276 -0.0136,0.05468 -0.0196,0.08268 -0.001,0.0062 -0.002,0.01239 -0.004,0.0186 -0.007,0.03451 -0.0131,0.06891 -0.0191,0.103354 -6.8e-4,0.0038 -10e-4,0.0076 -0.002,0.01137 -0.005,0.0291 -0.01,0.05813 -0.014,0.08733 -2.7e-4,0.0019 -2.5e-4,0.0038 -5.2e-4,0.0057 -0.004,0.03125 -0.008,0.06236 -0.0119,0.09354 -7.6e-4,0.007 -0.002,0.01415 -0.003,0.02119 -0.004,0.0323 -0.007,0.06455 -0.009,0.09715 -0.001,0.01329 -0.001,0.02651 -0.002,0.03979 -5.6e-4,0.0098 -10e-4,0.01964 -0.002,0.02946 -7.1e-4,0.01534 -0.002,0.03063 -0.002,0.04599 -0.001,0.03531 -0.002,0.07105 -0.002,0.106453 0,0.01591 4.1e-4,0.03165 5.2e-4,0.04754 1.2e-4,0.01728 10e-6,0.03444 5.2e-4,0.05168 0.002,0.04121 0.004,0.08262 0.007,0.124023 8.6e-4,0.01301 0.003,0.02581 0.004,0.03876 3e-5,3.41e-4 -3e-5,6.9e-4 0,0.001 0.002,0.01657 0.003,0.03307 0.005,0.04961 0.004,0.0418 0.01,0.08409 0.0155,0.126093 0.002,0.0123 0.004,0.02443 0.006,0.03669 0.002,0.01605 0.004,0.03207 0.007,0.04806 0.008,0.04478 0.0158,0.08956 0.0258,0.134358 0.005,0.0253 0.0116,0.05107 0.0176,0.07597 0.011,0.0457 0.0226,0.09156 0.0357,0.13746 0.008,0.0263 0.0163,0.05245 0.0243,0.07855 0.0134,0.04282 0.0269,0.08536 0.0424,0.128157 0.0124,0.03472 0.0262,0.06917 0.0393,0.10387 0.0133,0.03391 0.0259,0.068 0.0408,0.101801 0.0192,0.04615 0.0409,0.09154 0.0625,0.136943 0.0118,0.0244 0.0227,0.0492 0.0346,0.0739 0.0352,0.07082 0.0725,0.140406 0.11265,0.209807 l 14.29887,24.76593 4.01268,6.95048 0.002,-0.001 1.28829,2.23139 v 5.2e-4 c 0.0164,0.0284 0.0346,0.0549 0.0517,0.0827 0.0357,0.0585 0.072,0.11592 0.10955,0.17105 0.003,0.004 0.005,0.008 0.008,0.0114 0.029,0.0422 0.0585,0.0843 0.0889,0.12506 0.0187,0.0249 0.0378,0.0487 0.0568,0.0729 0.006,0.007 0.0117,0.0149 0.0176,0.0222 0.0212,0.0265 0.0428,0.0528 0.0646,0.0786 0.0257,0.0302 0.0522,0.0589 0.0786,0.0878 0.003,0.003 0.006,0.007 0.009,0.0103 0.0206,0.0225 0.0419,0.0444 0.0625,0.0667 0.0282,0.029 0.0569,0.0571 0.0858,0.0847 0.002,0.002 0.005,0.005 0.007,0.007 0.0206,0.0196 0.0409,0.0393 0.062,0.0584 0.004,0.003 0.008,0.007 0.0114,0.01 0.0265,0.0237 0.0536,0.0466 0.0806,0.0692 0.004,0.003 0.007,0.006 0.0109,0.009 0.0227,0.0189 0.0454,0.0377 0.0687,0.0558 0.002,0.002 0.004,0.003 0.006,0.005 0.0258,0.0201 0.0518,0.0397 0.078,0.0589 0.004,0.003 0.008,0.006 0.0124,0.009 0.026,0.0196 0.0529,0.0383 0.0801,0.0563 0.005,0.003 0.01,0.006 0.0145,0.009 0.0201,0.0134 0.0401,0.0269 0.0605,0.0398 0.007,0.005 0.0144,0.009 0.0217,0.0139 0.0299,0.0188 0.0603,0.0371 0.0909,0.0548 0.008,0.005 0.0169,0.01 0.0253,0.0145 0.009,0.005 0.0182,0.0105 0.0274,0.0155 0.0113,0.006 0.0227,0.013 0.0341,0.0191 0.0367,0.0189 0.0732,0.0377 0.11059,0.0558 0.01,0.005 0.0193,0.009 0.0289,0.0134 0.006,0.003 0.0114,0.005 0.017,0.008 0.0119,0.005 0.0237,0.0112 0.0357,0.0165 0.0383,0.0173 0.0774,0.0338 0.11679,0.0496 0.007,0.003 0.0141,0.005 0.0212,0.008 0.009,0.004 0.0186,0.007 0.0279,0.0109 0.0103,0.004 0.0207,0.008 0.031,0.0119 0.0426,0.0158 0.0854,0.0313 0.12919,0.045 0.008,0.003 0.0172,0.005 0.0258,0.008 0.002,6.5e-4 0.004,0.001 0.006,0.002 0.0142,0.004 0.0283,0.009 0.0424,0.0129 0.0451,0.0133 0.0906,0.0261 0.13695,0.0377 0.008,0.002 0.0155,0.003 0.0233,0.005 10e-4,2.6e-4 0.002,7.8e-4 0.003,10e-4 0.0179,0.004 0.0359,0.008 0.0537,0.0119 0.0438,0.01 0.0875,0.0199 0.13229,0.0279 0.0363,0.007 0.073,0.0116 0.10955,0.0176 0.036,0.005 0.0718,0.0115 0.10852,0.0155 0.007,8.8e-4 0.0135,0.001 0.0201,0.002 0.004,4.2e-4 0.007,6.3e-4 0.0109,0.001 0.0395,0.004 0.0791,0.008 0.11886,0.0114 0.0271,0.002 0.0537,0.005 0.0811,0.007 0.0789,0.005 0.15803,0.007 0.23823,0.007 h 28.59774 8.02535 v -5.1e-4 h 2.5771 c 0.0418,0 0.083,-0.003 0.12454,-0.004 0.0382,-10e-4 0.0767,-10e-4 0.11472,-0.004 0.0251,-0.001 0.0502,-0.004 0.0749,-0.006 0,0 5.2e-4,0 5.2e-4,0 0.002,-1.6e-4 0.004,-3.7e-4 0.006,-5.2e-4 0.0489,-0.004 0.0979,-0.008 0.14624,-0.0139 0.001,-1.5e-4 0.002,-3.7e-4 0.004,-5.2e-4 0.0367,-0.004 0.0724,-0.0101 0.10852,-0.0155 0.003,-3.9e-4 0.005,-6.4e-4 0.008,-0.001 0.0335,-0.005 0.067,-0.0105 0.10025,-0.0165 5.1e-4,-9e-5 0.001,9e-5 0.002,0 0.0175,-0.003 0.0344,-0.007 0.0517,-0.0109 0.0252,-0.005 0.0505,-0.01 0.0755,-0.0155 0.002,-3.9e-4 0.003,-10e-4 0.005,-10e-4 0.0267,-0.006 0.0536,-0.0115 0.0801,-0.0181 0.0438,-0.011 0.0869,-0.0231 0.12971,-0.0357 0.002,-7e-4 0.005,-10e-4 0.007,-0.002 0.0249,-0.007 0.0497,-0.0148 0.0744,-0.0227 0.0437,-0.0141 0.0866,-0.0292 0.12919,-0.045 0.0268,-0.01 0.0536,-0.0204 0.0801,-0.031 5.1e-4,-2e-4 10e-4,-3.1e-4 10e-4,-5.1e-4 0.0376,-0.0151 0.0749,-0.0306 0.11163,-0.047 0.001,-5.7e-4 0.002,-0.002 0.004,-0.002 0.0217,-0.01 0.0431,-0.0198 0.0646,-0.03 0.006,-0.003 0.0114,-0.005 0.017,-0.008 8.3e-4,-4.1e-4 0.002,-0.001 0.003,-0.002 0.0347,-0.0169 0.069,-0.0346 0.10283,-0.0527 0.002,-8e-4 0.003,-0.001 0.005,-0.002 0.0292,-0.0156 0.058,-0.032 0.0868,-0.0486 5.4e-4,-3.1e-4 10e-4,-7.3e-4 0.002,-0.001 0.0288,-0.0166 0.0572,-0.0331 0.0853,-0.0506 10e-4,-9.1e-4 0.003,-0.002 0.004,-0.003 0.0288,-0.0179 0.0574,-0.0364 0.0858,-0.0553 0.004,-0.002 0.008,-0.005 0.0114,-0.007 0.001,-7e-4 0.002,-0.001 0.003,-0.002 0.005,-0.003 0.009,-0.007 0.0139,-0.01 0.0212,-0.0146 0.0422,-0.0293 0.0631,-0.0444 0.0326,-0.0236 0.0647,-0.0479 0.0966,-0.0729 3.8e-4,-3e-4 6.5e-4,-7.4e-4 0.001,-0.001 0.015,-0.0118 0.0301,-0.0241 0.045,-0.0362 0.007,-0.006 0.0149,-0.012 0.0222,-0.0181 0,0 5.2e-4,-5.2e-4 5.2e-4,-5.2e-4 0.0346,-0.0287 0.0691,-0.0579 0.10283,-0.0884 0.0192,-0.0174 0.0381,-0.0353 0.0568,-0.0532 0.002,-0.002 0.003,-0.003 0.005,-0.005 0.0314,-0.0299 0.0624,-0.0604 0.093,-0.092 9.4e-4,-9.7e-4 0.002,-0.002 0.003,-0.003 0.019,-0.0197 0.0372,-0.0403 0.0558,-0.0605 0.001,-0.001 0.002,-0.002 0.004,-0.004 0.0292,-0.0318 0.058,-0.0639 0.0863,-0.0971 3.2e-4,-3.7e-4 7.3e-4,-6.7e-4 0.001,-0.001 0.0219,-0.0257 0.0434,-0.0521 0.0646,-0.0785 0.0251,-0.0314 0.0505,-0.0624 0.0749,-0.0951 0.0292,-0.039 0.0569,-0.0794 0.0847,-0.11989 0.001,-0.002 0.002,-0.003 0.004,-0.005 0.0138,-0.0202 0.0283,-0.0393 0.0419,-0.06 0,0 5.2e-4,-5.2e-4 5.2e-4,-5.2e-4 2.1e-4,-3.2e-4 3.1e-4,-7.1e-4 5.2e-4,-0.001 0.0438,-0.0658 0.0855,-0.13368 0.12557,-0.20308 l 5.2e-4,-5.2e-4 6.73499,-11.66492 10.82208,-18.743561 h -0.001 l 0.755002,-1.307415 5.1e-4,-5.16e-4 1.28778,-2.23139 c 0,0 5.2e-4,-5.16e-4 5.2e-4,-5.16e-4 10e-4,-0.0024 0.002,-0.0049 0.004,-0.0072 0.0704,-0.122518 0.13122,-0.244893 0.18552,-0.367421 0.005,-0.01174 0.011,-0.02336 0.016,-0.03514 0.053,-0.122928 0.097,-0.245887 0.13436,-0.368453 0.005,-0.01673 0.0107,-0.03334 0.0155,-0.05012 0.0362,-0.125672 0.0639,-0.250815 0.0842,-0.375687 0.002,-0.01463 0.005,-0.02927 0.007,-0.04393 0.0191,-0.12864 0.0301,-0.256606 0.0331,-0.383955 3.8e-4,-0.01585 8.9e-4,-0.03167 10e-4,-0.04754 0.001,-0.127024 -0.006,-0.253505 -0.0207,-0.378788 -0.002,-0.01965 -0.005,-0.03923 -0.007,-0.05891 -0.0172,-0.128317 -0.0422,-0.255391 -0.0749,-0.381373 -0.004,-0.01708 -0.009,-0.03406 -0.0134,-0.05116 -0.0369,-0.1332 -0.0825,-0.264806 -0.13591,-0.394809 -0.005,-0.01244 -0.01,-0.02476 -0.015,-0.03721 -0.0615,-0.145169 -0.13184,-0.288507 -0.2129,-0.428916 l -5.2e-4,-5.16e-4 -1.28778,-2.231387 -0.754992,-1.307931 h 5.2e-4 L 88.823098,29.858379 82.088108,18.193458 c -0.0405,-0.07015 -0.0835,-0.138139 -0.12765,-0.20464 -0.0132,-0.0209 -0.0274,-0.04026 -0.0413,-0.06046 -0.029,-0.04218 -0.0579,-0.08436 -0.0884,-0.125058 -0.0244,-0.0327 -0.0499,-0.06369 -0.0749,-0.09508 -0.0212,-0.0265 -0.0428,-0.05275 -0.0646,-0.07855 -0.0286,-0.0337 -0.0574,-0.06638 -0.0873,-0.09818 -0.0206,-0.0225 -0.0418,-0.04466 -0.0625,-0.06666 -0.0306,-0.0316 -0.0617,-0.06208 -0.093,-0.09198 -0.0205,-0.0196 -0.0408,-0.03959 -0.062,-0.0584 -0.0338,-0.0305 -0.0683,-0.05967 -0.10283,-0.08837 -0.0227,-0.0189 -0.0455,-0.03761 -0.0687,-0.05581 -0.0319,-0.025 -0.0641,-0.04926 -0.0966,-0.07286 -0.0264,-0.0191 -0.053,-0.03803 -0.0801,-0.05633 -0.032,-0.0216 -0.0645,-0.04223 -0.0971,-0.06253 -0.03,-0.0188 -0.0603,-0.03708 -0.091,-0.05478 -0.0288,-0.0166 -0.0576,-0.03298 -0.0868,-0.04857 -0.0364,-0.0194 -0.0732,-0.03823 -0.11059,-0.05633 -0.0271,-0.013 -0.0543,-0.02542 -0.0816,-0.03772 -0.0384,-0.0173 -0.0774,-0.03381 -0.11679,-0.04961 -0.0266,-0.0106 -0.0533,-0.021 -0.0801,-0.03101 -0.0426,-0.0158 -0.0855,-0.03086 -0.12919,-0.04496 -0.0247,-0.0079 -0.0495,-0.01574 -0.0744,-0.02274 -0.0451,-0.0133 -0.0906,-0.02612 -0.13694,-0.03772 -0.0266,-0.0066 -0.0533,-0.01209 -0.0801,-0.01809 -0.0438,-0.0098 -0.0875,-0.01991 -0.13229,-0.02791 -0.0363,-0.0067 -0.0729,-0.01157 -0.10956,-0.01757 -0.036,-0.0054 -0.0718,-0.0115 -0.10852,-0.0155 -0.0495,-0.0065 -0.0998,-0.01047 -0.14986,-0.01447 -0.0272,-0.002 -0.0538,-0.0047 -0.0811,-0.0067 -0.0789,-0.005 -0.1581,-0.0072 -0.23823,-0.0072 h -28.59774 z"/><path id="path6" style="mix-blend-mode:normal;fill:#1f0774;fill-opacity:1;stroke:none;stroke-width:0.693967;filter:url(#filter56934)" d="M 376.125 202.80078 L 364.28516 244.68359 L 368.63867 244.68359 C 374.71513 244.68359 377.22033 241.614 379.9375 237.46484 L 391.83203 216.85938 C 394.66679 211.94945 395.66662 208.95916 395.67773 202.80078 L 376.125 202.80078 z " transform="scale(0.26458334)"/><path id="path16393" style="mix-blend-mode:normal;fill:#1f0774;fill-opacity:1;stroke:none;stroke-width:0.693967;filter:url(#filter17243)" d="M 53.986328 203.4668 C 53.854228 209.28142 56.912768 215.00257 63.193359 225.88086 L 75.591797 247.35352 L 130.11133 341.78711 C 130.81455 343.00516 137.71356 354.80078 151.97266 354.80078 C 158.37487 354.80078 160.66016 351.09278 160.66016 347.39844 L 160.66016 259.33594 L 160.66016 251.08594 L 160.66016 203.4668 L 53.986328 203.4668 z " transform="scale(0.26458334)"/><path id="path55280" style="fill:#1f0774;fill-opacity:1;stroke:none;stroke-width:0.693967;filter:url(#filter59166)" d="M 335.70898 93.171875 L 335.70898 112.84961 L 335.70898 112.91992 L 338.94141 112.91992 C 342.28056 112.91992 345.86014 110.75438 341.67969 103.51367 L 335.70898 93.171875 z " transform="scale(0.26458334)"/><path id="path16391" style="fill:url(#linearGradient34608);fill-opacity:1;stroke:none;stroke-width:0.183612" d="m 41.506867,13.84587 c -3.272904,-0.0336 -5.288951,0.484657 -7.296585,3.96198 l -5.530986,9.58026 -11.959195,20.713582 c -3.246583,5.623253 -3.257596,6.020078 0,11.662403 l 3.279955,5.681662 14.425422,24.985268 c 0.186065,0.322275 2.011411,3.443152 5.784134,3.443152 1.693916,0 2.298477,-0.980947 2.298477,-1.958407 V 68.616022 66.433305 c 0,-1.285178 0.586809,-1.680203 1.983457,-1.680203 v -0.01402 l 53.044019,3.74e-4 c 1.60773,0 2.270302,-0.812032 2.989225,-1.90983 l 3.1475,-5.452042 c 0.75003,-1.299083 1.0146,-2.09043 1.01754,-3.719835 0.009,-4.319685 -2.87374,-5.037592 -3.74906,-5.037592 H 44.491546 c -1.396648,0 -1.983457,-0.395026 -1.983457,-1.680203 V 44.757225 33.739657 31.55694 c 0,-1.285185 0.586809,-1.68021 1.983457,-1.68021 H 89.6784 c 0.883485,0 1.830615,-0.572843 0.724537,-2.48862 L 84.87195,17.80785 C 82.730482,14.098703 80.578927,13.756162 76.9032,13.859152 H 42.178652 c -0.229735,-0.0068 -0.453588,-0.01103 -0.671785,-0.01328 z"/><path id="path15001" style="fill:#1f0774;fill-opacity:1;stroke:none;stroke-width:0.693967;filter:url(#filter84277)" d="M 190.99805 62.3125 L 160.66602 62.314453 L 160.66602 62.320312 L 150.92383 62.320312 C 145.7799 62.320312 142.03859 64.815185 139.75781 68.765625 L 134.88672 77.199219 L 114.30273 112.85156 L 73.400391 183.69336 L 73.404297 183.69336 L 65.681641 197.07031 L 65.679688 197.07227 C 65.642887 197.13607 65.611782 197.20143 65.576172 197.26562 C 65.415692 197.55297 65.267879 197.83956 65.130859 198.12695 C 65.109759 198.17115 65.090813 198.21555 65.070312 198.25977 C 65.008512 198.39026 64.945472 198.52008 64.888672 198.65234 C 64.885672 198.65934 64.883859 198.66537 64.880859 198.67188 C 64.840059 198.76758 64.803855 198.86333 64.765625 198.95898 C 64.750225 198.99848 64.73425 199.03868 64.71875 199.07812 C 64.67185 199.19756 64.627054 199.31731 64.583984 199.4375 C 64.583984 199.4375 64.583984 199.43945 64.583984 199.43945 C 64.535184 199.57636 64.490986 199.71285 64.447266 199.84961 C 64.441266 199.86921 64.433634 199.8885 64.427734 199.9082 C 64.392934 200.01818 64.360132 200.12986 64.326172 200.24023 C 64.324172 200.24723 64.322313 200.25317 64.320312 200.25977 C 64.283312 200.39074 64.25121 200.52155 64.21875 200.65234 C 64.21375 200.67444 64.206572 200.69665 64.201172 200.71875 C 64.175872 200.82307 64.149653 200.92543 64.126953 201.03125 C 64.121953 201.05475 64.117981 201.07806 64.113281 201.10156 C 64.086081 201.232 64.063716 201.36201 64.041016 201.49219 C 64.038016 201.50649 64.036203 201.52086 64.033203 201.53516 C 64.014303 201.64514 63.995569 201.75486 63.980469 201.86523 C 63.979469 201.87223 63.979586 201.87962 63.978516 201.88672 C 63.962016 202.00482 63.946494 202.12239 63.933594 202.24023 C 63.930594 202.26683 63.926828 202.29371 63.923828 202.32031 C 63.908728 202.44239 63.896172 202.56429 63.888672 202.6875 C 63.884672 202.7377 63.883859 202.78771 63.880859 202.83789 C 63.878859 202.87499 63.875047 202.91209 63.873047 202.94922 C 63.870047 203.00722 63.867234 203.06499 63.865234 203.12305 C 63.860234 203.2565 63.857422 203.3916 63.857422 203.52539 C 63.857422 203.58549 63.859375 203.645 63.859375 203.70508 C 63.859825 203.77038 63.859378 203.83524 63.861328 203.90039 C 63.869328 204.05615 63.875319 204.21267 63.886719 204.36914 C 63.889719 204.41834 63.895691 204.46673 63.900391 204.51562 C 63.900501 204.51663 63.900281 204.51853 63.900391 204.51953 C 63.906391 204.58213 63.911669 204.64453 63.917969 204.70703 C 63.933469 204.86502 63.953862 205.02485 63.976562 205.18359 C 63.983563 205.23009 63.991047 205.2759 63.998047 205.32227 C 64.007047 205.38297 64.014691 205.44349 64.025391 205.50391 C 64.054091 205.67316 64.085247 205.8424 64.123047 206.01172 C 64.143847 206.10732 64.166753 206.20472 64.189453 206.29883 C 64.231053 206.47155 64.274749 206.64488 64.324219 206.81836 C 64.352919 206.91776 64.385816 207.01658 64.416016 207.11523 C 64.446645 207.2132 64.481163 207.31056 64.513672 207.4082 L 308.61328 66.476562 C 308.54898 66.403499 308.48633 66.328466 308.41992 66.257812 C 308.34203 66.172812 308.26206 66.089009 308.18359 66.005859 C 308.06786 65.886429 307.95052 65.771213 307.83203 65.658203 C 307.75436 65.584103 307.6779 65.50856 307.59766 65.4375 C 307.47004 65.32223 307.33964 65.211986 307.20898 65.103516 C 307.1233 65.032116 307.03687 64.961368 306.94922 64.892578 C 306.8288 64.798078 306.70697 64.706388 306.58398 64.617188 C 306.48417 64.544987 306.3836 64.473467 306.28125 64.404297 C 306.16034 64.322697 306.03731 64.244699 305.91406 64.167969 C 305.80075 64.096869 305.68616 64.027838 305.57031 63.960938 C 305.46165 63.898237 305.35259 63.836304 305.24219 63.777344 C 305.10465 63.704044 304.96538 63.632863 304.82422 63.564453 C 304.72164 63.515353 304.61884 63.468355 304.51562 63.421875 C 304.37049 63.356475 304.22302 63.294095 304.07422 63.234375 C 303.9738 63.194275 303.87266 63.154978 303.77148 63.117188 C 303.61046 63.057487 303.44829 63.000556 303.2832 62.947266 C 303.19004 62.917366 303.09622 62.887728 303.00195 62.861328 C 302.83143 62.811028 302.65937 62.76262 302.48438 62.71875 C 302.38395 62.69385 302.28289 62.673091 302.18164 62.650391 C 302.01613 62.613391 301.851 62.575192 301.68164 62.544922 C 301.54437 62.519622 301.40595 62.501216 301.26758 62.478516 C 301.13141 62.458116 300.99621 62.435022 300.85742 62.419922 C 300.67025 62.395322 300.48041 62.380334 300.29102 62.365234 C 300.1884 62.357234 300.08778 62.347444 299.98438 62.339844 C 299.68625 62.320944 299.38684 62.3125 299.08398 62.3125 L 190.99805 62.3125 z " transform="scale(0.26458334)"/><path id="path78321" style="fill:url(#linearGradient86330);fill-opacity:1;stroke:none;stroke-width:0.183612" d="m 41.506867,13.84587 c -3.272904,-0.0336 -5.288951,0.484657 -7.296585,3.96198 l -5.530986,9.58026 -11.959195,20.713582 c -3.246583,5.623253 -3.257596,6.020078 0,11.662403 l 3.279955,5.681662 14.425422,24.985268 c 0.186065,0.322275 2.011411,3.443152 5.784134,3.443152 1.693916,0 2.298477,-0.980947 2.298477,-1.958407 V 68.616022 66.433305 c 0,-1.285178 0.586809,-1.680203 1.983457,-1.680203 v -0.01402 l 53.044019,3.74e-4 c 1.60773,0 2.270302,-0.812032 2.989225,-1.90983 l 3.1475,-5.452042 c 0.75003,-1.299083 1.0146,-2.09043 1.01754,-3.719835 0.009,-4.319685 -2.87374,-5.037592 -3.74906,-5.037592 H 44.491546 c -1.396648,0 -1.983457,-0.395026 -1.983457,-1.680203 V 44.757225 33.739657 31.55694 c 0,-1.285185 0.586809,-1.68021 1.983457,-1.68021 H 89.6784 c 0.883485,0 1.830615,-0.572843 0.724537,-2.48862 L 84.87195,17.80785 C 82.730482,14.098703 80.578927,13.756162 76.9032,13.859152 H 42.178652 c -0.229735,-0.0068 -0.453588,-0.01103 -0.671785,-0.01328 z"/></g></g></svg>